<svg width="58" height="54" viewBox="0 0 58 54" fill="none" xmlns="http://www.w3.org/2000/svg">
<path fill-rule="evenodd" clip-rule="evenodd" d="M55 30V54H31V30H55ZM53 32H33V52H42V39.414L37.707 43.707L36.293 42.293L43 35.586L49.707 42.293L48.293 43.707L44 39.414V52H53V32Z" fill="black"/>
<path fill-rule="evenodd" clip-rule="evenodd" d="M16 6C19.071 6 21.569 8.498 21.569 11.569C21.569 14.64 19.071 17.137 16 17.137C12.929 17.137 10.431 14.639 10.431 11.569C10.431 8.498 12.929 6 16 6ZM16 8C14.032 8 12.431 9.602 12.431 11.569C12.431 13.537 14.032 15.138 16 15.138C17.968 15.138 19.569 13.536 19.569 11.569C19.569 9.602 17.968 8 16 8Z" fill="black"/>
<path d="M6.25003 34.661C6.44703 34.886 6.72303 35 7.00003 35C7.23403 35 7.47003 34.918 7.66003 34.751L23.973 20.389L31.292 27.707C31.683 28.098 32.315 28.098 32.706 27.707C33.097 27.316 33.097 26.684 32.706 26.293L30.881 24.469L40.062 14.415L51.323 24.738C51.731 25.111 52.363 25.083 52.736 24.676C53.109 24.269 53.082 23.636 52.674 23.263L40.674 12.263C40.478 12.084 40.222 11.984 39.954 12.001C39.689 12.013 39.439 12.13 39.26 12.326L29.466 23.053L24.723 18.31C24.349 17.938 23.751 17.919 23.355 18.266L6.33903 33.249C5.92503 33.614 5.88403 34.246 6.25003 34.661Z" fill="black"/>
<path d="M57 0H1C0.448 0 0 0.447 0 1V45C0 45.553 0.448 46 1 46H25C25.552 46 26 45.553 26 45C26 44.447 25.552 44 25 44H2V2H56V25C56 25.553 56.448 26 57 26C57.552 26 58 25.553 58 25V1C58 0.447 57.552 0 57 0Z" fill="black"/>
</svg>
